<svg xmlns="http://www.w3.org/2000/svg" version="1.0" width="512.000000" height="512.000000" preserveAspectRatio="xMidYMid meet"><rect id="backgroundrect" width="100%" height="100%" x="0" y="0" fill="none" stroke="none"/>
<metadata>
Created by potrace 1.16, written by Peter Selinger 2001-2019
</metadata>

<g class="currentLayer" style=""><title>Layer 1</title><g transform="translate(0,512) scale(0.10000000149011612,-0.10000000149011612) " fill="#b6b6b6" stroke="none" id="svg_1" class="selected" fill-opacity="1">
<path d="M3282 4639 c21 -6 21 -7 2 -8 -32 -2 -153 -45 -214 -77 -73 -38 -74 -39 -65 -24 5 9 4 11 -4 6 -6 -4 -9 -11 -6 -16 3 -5 -5 -14 -17 -21 -13 -6 -134 -122 -270 -257 -136 -135 -250 -244 -252 -241 -6 6 413 423 484 483 36 30 38 33 10 16 -46 -30 -2141 -2125 -2169 -2170 -21 -32 -20 -32 10 5 36 44 1652 1666 1656 1662 1 -2 -366 -372 -816 -822 -658 -660 -827 -835 -867 -897 -69 -107 -76 -117 -59 -80 19 39 11 43 -8 5 -8 -16 -12 -34 -9 -42 3 -8 0 -11 -7 -7 -7 5 -9 1 -4 -10 4 -12 3 -15 -5 -10 -8 5 -10 1 -5 -10 3 -10 2 -15 -3 -12 -5 4 -10 -4 -10 -15 -1 -12 -15 -60 -32 -107 -50 -138 -65 -228 -65 -390 0 -162 15 -252 65 -390 17 -47 31 -95 32 -107 0 -11 5 -19 10 -15 5 3 6 -2 3 -12 -5 -11 -3 -15 5 -10 8 5 9 2 5 -10 -5 -11 -3 -15 4 -10 7 4 10 1 7 -7 -3 -8 1 -26 9 -42 19 -38 27 -34 8 5 -17 37 -12 30 60 -80 64 -99 218 -253 317 -317 110 -72 117 -77 81 -60 -40 19 -44 11 -5 -8 15 -8 33 -12 41 -9 8 3 11 0 7 -7 -5 -7 -1 -9 10 -4 12 4 15 3 10 -5 -5 -8 -1 -10 10 -5 10 3 15 2 12 -3 -4 -5 4 -10 15 -10 12 -1 60 -15 107 -32 138 -50 228 -65 390 -65 162 0 252 15 390 65 47 17 95 31 107 32 11 0 19 5 15 10 -3 5 2 6 12 3 11 -5 15 -3 10 5 -5 8 -2 9 10 5 11 -5 15 -3 10 4 -4 7 -1 10 7 7 8 -3 26 1 42 9 38 19 34 27 -5 8 -37 -17 -27 -10 80 59 62 40 251 223 962 930 l885 881 -875 -876 c-481 -482 -893 -890 -915 -908 -37 -30 -37 -31 -5 -10 33 21 1829 1809 1803 1795 -17 -9 -16 4 2 28 8 10 19 42 26 71 10 44 9 60 -7 111 -10 32 -18 64 -19 71 0 17 -64 81 -78 80 -7 -1 -39 7 -72 17 -57 18 -63 18 -120 2 -33 -9 -67 -18 -77 -20 -9 -1 -36 -19 -60 -40 -48 -43 -1732 -1721 -1708 -1703 50 38 52 38 16 5 -95 -87 -273 -148 -436 -148 -163 0 -341 61 -436 148 -22 20 -31 30 -20 22 52 -40 57 -40 14 -1 -26 23 -68 65 -94 94 -44 48 -45 45 -4 -9 8 -11 -2 -2 -22 20 -87 95 -148 273 -148 436 0 163 61 341 148 436 33 36 33 34 -5 -16 -7 -8 453 450 1020 1018 889 890 1040 1037 1091 1062 33 17 54 30 47 30 -49 0 -139 -85 -973 -918 -483 -482 -878 -875 -878 -872 0 3 391 397 870 875 622 622 885 879 922 900 49 28 61 30 148 30 79 0 102 -4 137 -23 63 -33 106 -74 139 -134 26 -48 29 -62 29 -148 0 -86 -3 -100 -28 -146 -29 -51 -182 -213 -192 -203 -3 3 27 35 66 70 67 58 129 138 129 163 0 6 -13 -10 -28 -36 -18 -31 -271 -281 -742 -734 -1072 -1030 -1246 -1200 -1247 -1220 -1 -11 -9 -46 -19 -79 -16 -57 -16 -63 2 -120 10 -33 18 -65 17 -72 0 -6 18 -29 40 -50 22 -21 36 -32 32 -24 -4 7 -4 12 1 9 119 -58 169 -58 288 0 5 3 5 -2 1 -9 -14 -24 23 11 984 934 935 897 1014 976 1053 1032 27 38 11 23 -39 -36 -21 -25 -94 -99 -163 -165 -125 -118 -125 -118 31 41 86 88 162 170 168 183 7 12 16 20 21 17 5 -3 12 0 16 6 5 8 3 9 -6 4 -15 -9 -15 -9 27 72 18 34 45 102 59 150 22 75 26 107 26 213 0 106 -4 138 -26 213 -14 48 -41 116 -59 150 -42 81 -42 81 -27 72 9 -5 11 -4 6 4 -4 6 -11 9 -16 6 -4 -3 -17 10 -29 28 -23 38 -156 168 -189 186 -12 7 -20 16 -17 21 3 5 0 12 -6 16 -8 5 -9 3 -4 -6 9 -15 8 -14 -65 24 -61 32 -182 75 -214 77 -19 1 -19 2 2 8 13 3 -58 6 -158 6 -100 0 -171 -3 -158 -6z m238 -1154 c0 -3 -980 -948 -1700 -1639 -114 -110 -114 -110 -20 -14 86 88 1712 1657 1718 1658 1 0 2 -2 2 -5z m240 -469 c-14 -13 -388 -371 -831 -797 -443 -426 -818 -785 -835 -798 -35 -30 67 70 966 937 388 374 709 681 715 681 5 1 -2 -10 -15 -23z m-660 -1091 c-465 -465 -849 -845 -855 -844 -10 0 1685 1689 1695 1689 3 0 -375 -380 -840 -845z" id="svg_2" fill="#b6b6b6" fill-opacity="1"/>
</g></g></svg>