<svg xmlns="http://www.w3.org/2000/svg" version="1.0" width="512.000000" height="512.000000" preserveAspectRatio="xMidYMid meet"><rect id="backgroundrect" width="100%" height="100%" x="0" y="0" fill="none" stroke="none"/>
<metadata>
Created by potrace 1.16, written by Peter Selinger 2001-2019
</metadata>

<g class="currentLayer" style=""><title>Layer 1</title><g transform="translate(0,512) scale(0.10000000149011612,-0.10000000149011612) " fill="#b6b6b6" stroke="none" id="svg_1" class="selected" fill-opacity="1">
<path d="M2305 5113 c-671 -72 -1279 -393 -1707 -903 -301 -358 -488 -764 -571 -1240 -19 -109 -21 -162 -21 -410 0 -248 2 -301 21 -410 94 -540 320 -987 693 -1374 383 -398 866 -650 1430 -749 109 -19 162 -21 410 -21 313 0 407 10 653 73 882 228 1600 946 1828 1828 63 246 73 340 73 653 0 313 -10 407 -73 653 -228 881 -946 1600 -1828 1828 -227 58 -334 71 -613 74 -140 2 -273 1 -295 -2z m575 -299 c519 -78 977 -318 1338 -699 330 -349 537 -786 603 -1275 19 -142 17 -450 -5 -595 -113 -747 -566 -1378 -1231 -1715 -224 -114 -456 -188 -710 -226 -162 -24 -466 -25 -625 -1 -489 74 -911 279 -1262 615 -372 357 -607 814 -684 1332 -24 161 -24 465 0 625 113 747 566 1378 1231 1715 260 132 523 208 825 240 116 12 392 4 520 -16z" id="svg_2" fill="#b6b6b6" fill-opacity="1"/>
<path d="M1623 3394 c-180 -66 -235 -307 -105 -455 51 -59 114 -84 207 -84 70 0 87 4 134 30 195 108 192 395 -6 495 -60 30 -167 37 -230 14z" id="svg_3" fill="#b6b6b6" fill-opacity="1"/>
<path d="M3345 3398 c-80 -29 -153 -103 -176 -179 -39 -131 16 -270 132 -334 47 -26 64 -30 134 -30 64 0 89 5 125 23 86 45 130 104 151 201 27 127 -48 266 -168 311 -59 22 -149 25 -198 8z" id="svg_4" fill="#b6b6b6" fill-opacity="1"/>
<path d="M1335 1950 c-60 -39 -111 -72 -113 -75 -9 -8 63 -107 141 -195 227 -258 538 -438 882 -512 180 -38 475 -35 663 8 351 81 677 283 899 559 52 64 97 134 91 140 -16 16 -223 145 -232 144 -6 0 -33 -32 -61 -70 -62 -87 -197 -218 -296 -285 -227 -157 -482 -237 -754 -237 -266 0 -524 83 -749 241 -93 65 -243 212 -301 295 -22 31 -45 57 -51 57 -6 0 -60 -32 -119 -70z" id="svg_5" fill="#b6b6b6" fill-opacity="1"/>
</g></g></svg>